<svg xmlns="http://www.w3.org/2000/svg" viewBox="0 0 512 512">
  <defs>
    <linearGradient id="g" x1="0" y1="0" x2="1" y2="1">
      <stop offset="0%" stop-color="#FFD700"/>
      <stop offset="50%" stop-color="#FFB800"/>
      <stop offset="100%" stop-color="#FF8C00"/>
    </linearGradient>
  </defs>
  <rect width="512" height="512" rx="112" fill="#0A0A0A"/>
  <g transform="translate(256 256) scale(3.7) translate(-50 -36)" fill="url(#g)">
    <path d="M2 14 L28 14 L34 22 L8 22 Z"/>
    <path d="M2 26 L34 26 L40 34 L8 34 Z"/>
    <path d="M2 38 L40 38 L46 46 L8 46 Z"/>
    <path d="M98 14 L72 14 L66 22 L92 22 Z"/>
    <path d="M98 26 L66 26 L60 34 L92 34 Z"/>
    <path d="M98 38 L60 38 L54 46 L92 46 Z"/>
    <path d="M40 18 L60 18 L60 52 L50 60 L40 52 Z"/>
  </g>
</svg>
